<svg width="200" height="200" viewBox="0 0 200 200" fill="none" xmlns="http://www.w3.org/2000/svg">
<g clip-path="url(#clip0_137_66)">
<path d="M100.988 77.0412C120.329 77.0412 136.008 61.3619 136.008 42.0206C136.008 22.6793 120.329 7 100.988 7C81.6465 7 65.9673 22.6793 65.9673 42.0206C65.9673 61.3619 81.6465 77.0412 100.988 77.0412Z" fill="#FFE600"/>
<path d="M46.0368 116.999C65.3782 116.999 81.0574 101.32 81.0574 81.9788C81.0574 62.6375 65.3782 46.9583 46.0368 46.9583C26.6955 46.9583 11.0162 62.6375 11.0162 81.9788C11.0162 101.32 26.6955 116.999 46.0368 116.999Z" fill="#FFE600"/>
<path d="M67.0589 181.614C86.4003 181.614 102.08 165.935 102.08 146.594C102.08 127.252 86.4003 111.573 67.0589 111.573C47.7176 111.573 32.0383 127.252 32.0383 146.594C32.0383 165.935 47.7176 181.614 67.0589 181.614Z" fill="#FFE600"/>
<path d="M134.998 181.581C154.339 181.581 170.019 165.902 170.019 146.561C170.019 127.22 154.339 111.54 134.998 111.54C115.657 111.54 99.9774 127.22 99.9774 146.561C99.9774 165.902 115.657 181.581 134.998 181.581Z" fill="#FFE600"/>
<path d="M155.971 116.959C175.313 116.959 190.992 101.279 190.992 81.9381C190.992 62.5967 175.313 46.9175 155.971 46.9175C136.63 46.9175 120.951 62.5967 120.951 81.9381C120.951 101.279 136.63 116.959 155.971 116.959Z" fill="#FFE600"/>
<path d="M101.566 99.8234C106.134 99.8234 109.837 96.1206 109.837 91.553C109.837 86.9855 106.134 83.2827 101.566 83.2827C96.9987 83.2827 93.2959 86.9855 93.2959 91.553C93.2959 96.1206 96.9987 99.8234 101.566 99.8234Z" fill="#FFE600"/>
<path d="M101.012 116.364C105.58 116.364 109.282 112.661 109.282 108.094C109.282 103.526 105.58 99.8232 101.012 99.8232C96.4446 99.8232 92.7418 103.526 92.7418 108.094C92.7418 112.661 96.4446 116.364 101.012 116.364Z" fill="#FFE600"/>
<path d="M100.988 141.175C123.826 141.175 142.339 122.661 142.339 99.8234C142.339 76.9855 123.826 58.4717 100.988 58.4717C78.1498 58.4717 59.636 76.9855 59.636 99.8234C59.636 122.661 78.1498 141.175 100.988 141.175Z" fill="#FFE600"/>
<path d="M75.8 93.3999C87.1792 117.488 113.906 117.537 126.2 94.8148" stroke="#ED2024" stroke-width="15.5385" stroke-linecap="round"/>
</g>
<defs>
<clipPath id="clip0_137_66">
<rect width="180" height="174.622" fill="white" transform="translate(11 7)"/>
</clipPath>
</defs>
</svg>
